<svg id="SvgjsSvg1019" xmlns="http://www.w3.org/2000/svg" version="1.1" xmlns:xlink="http://www.w3.org/1999/xlink" xmlns:svgjs="http://svgjs.com/svgjs" width="9" height="5"><defs id="SvgjsDefs1020"></defs><path id="SvgjsPath1021" d="M442.99 18.9999C442.846 18.9999 442.70300000000003 18.9518 442.593 18.856L439.146 15.836700000000002C438.927 15.644700000000002 438.927 15.333300000000003 439.146 15.141300000000003C439.365 14.949300000000003 439.721 14.949300000000003 439.94 15.141300000000003L442.99 17.813200000000002L446.04 15.141600000000002C446.259 14.949600000000002 446.615 14.949600000000002 446.834 15.141600000000002C447.053 15.333700000000002 447.053 15.644700000000002 446.834 15.837000000000002L443.387 18.856C443.277 18.951800000000002 443.134 18.9999 442.99 18.9999Z " fill="#000000" transform="matrix(1,0,0,1,-438,-14)"></path><path id="SvgjsPath1022" d="M442.99 18.9999C442.846 18.9999 442.70300000000003 18.9518 442.593 18.856L439.146 15.836700000000002C438.927 15.644700000000002 438.927 15.333300000000003 439.146 15.141300000000003C439.365 14.949300000000003 439.721 14.949300000000003 439.94 15.141300000000003L442.99 17.813200000000002L446.04 15.141600000000002C446.259 14.949600000000002 446.615 14.949600000000002 446.834 15.141600000000002C447.053 15.333700000000002 447.053 15.644700000000002 446.834 15.837000000000002L443.387 18.856C443.277 18.951800000000002 443.134 18.9999 442.99 18.9999Z " fill="#ffffff" fill-opacity="1" transform="matrix(1,0,0,1,-438,-14)"></path></svg>