<svg id="SvgjsSvg1000" xmlns="http://www.w3.org/2000/svg" version="1.1" xmlns:xlink="http://www.w3.org/1999/xlink" xmlns:svgjs="http://svgjs.com/svgjs" width="9" height="5"><defs id="SvgjsDefs1001"></defs><path id="SvgjsPath1007" d="M503.99 163C503.846 163 503.70300000000003 162.952 503.593 162.856L500.146 159.83599999999998C499.927 159.64399999999998 499.927 159.333 500.146 159.141C500.365 158.94899999999998 500.721 158.94899999999998 500.94 159.141L503.99 161.813L507.04 159.141C507.259 158.94899999999998 507.615 158.94899999999998 507.834 159.141C508.053 159.333 508.053 159.64399999999998 507.834 159.837L504.387 162.856C504.277 162.952 504.134 163 503.99 163Z " fill="#000000" transform="matrix(1,0,0,1,-499,-158)"></path><path id="SvgjsPath1008" d="M503.99 163C503.846 163 503.70300000000003 162.952 503.593 162.856L500.146 159.83599999999998C499.927 159.64399999999998 499.927 159.333 500.146 159.141C500.365 158.94899999999998 500.721 158.94899999999998 500.94 159.141L503.99 161.813L507.04 159.141C507.259 158.94899999999998 507.615 158.94899999999998 507.834 159.141C508.053 159.333 508.053 159.64399999999998 507.834 159.837L504.387 162.856C504.277 162.952 504.134 163 503.99 163Z " fill="#151f2f" fill-opacity="1" transform="matrix(1,0,0,1,-499,-158)"></path></svg>