<svg id="SvgjsSvg1016" xmlns="http://www.w3.org/2000/svg" version="1.1" xmlns:xlink="http://www.w3.org/1999/xlink" xmlns:svgjs="http://svgjs.com/svgjs" width="16" height="14"><defs id="SvgjsDefs1017"></defs><path id="SvgjsPath1018" d="M1481.73 86.2466L1470.92 86.2445L1470.47 84.6844C1470.4 84.4521 1470.21 84.2683 1469.98 84.2049L1468.39 83.77629999999999C1468.3300000000002 83.75989999999999 1468.2700000000002 83.75169999999999 1468.21 83.75169999999999C1467.9 83.75169999999999 1467.6200000000001 83.96409999999999 1467.54 84.26829999999998C1467.49 84.44859999999998 1467.51 84.63669999999998 1467.6 84.79839999999999C1467.6999999999998 84.96049999999998 1467.85 85.07629999999999 1468.03 85.1248L1469.24 85.45139999999999L1471.68 94.288C1471.3400000000001 94.4601 1471.1100000000001 94.8167 1471.1100000000001 95.2143C1471.1100000000001 95.78359999999999 1471.5700000000002 96.24669999999999 1472.14 96.24669999999999C1472.71 96.24669999999999 1473.18 95.78359999999999 1473.18 95.2143C1473.18 95.20039999999999 1473.18 95.18719999999999 1473.18 95.1737L1478.16 95.1737C1478.16 95.18719999999999 1478.16 95.2004 1478.16 95.2143C1478.16 95.78359999999999 1478.6200000000001 96.24669999999999 1479.19 96.24669999999999C1479.76 96.24669999999999 1480.23 95.78359999999999 1480.23 95.2143C1480.23 94.6903 1479.83 94.2513 1479.32 94.1886C1478.08 93.9884 1473.02 93.744 1473.02 93.744L1472.86 93.0935L1479.1699999999998 93.0935C1479.4899999999998 93.0935 1479.7799999999997 92.8769 1479.87 92.56620000000001L1481.2299999999998 87.76110000000001L1481.7299999999998 87.76110000000001C1482.1499999999999 87.76110000000001 1482.4899999999998 87.42190000000001 1482.4899999999998 87.00370000000001C1482.4899999999998 86.5858 1482.1499999999999 86.24660000000002 1481.7299999999998 86.24660000000002ZM1479.73 87.9203L1478.73 91.4469C1478.73 91.47 1478.7 91.4857 1478.68 91.4857L1472.51 91.4857C1472.48 91.48469999999999 1472.43 91.49249999999999 1472.41 91.41619999999999C1472.38 91.31969999999998 1472.3400000000001 91.18679999999999 1472.3400000000001 91.18679999999999L1471.41 87.9203C1471.41 87.90429999999999 1471.41 87.8868 1471.42 87.8736C1471.43 87.8604 1471.45 87.8526 1471.46 87.8526L1479.68 87.8526C1479.7 87.8526 1479.71 87.8604 1479.72 87.8736C1479.73 87.8868 1479.74 87.90429999999999 1479.73 87.9203Z " fill="#44d654" transform="matrix(1,0,0,1,-1467,-83)"></path></svg>