<svg id="SvgjsSvg1017" xmlns="http://www.w3.org/2000/svg" version="1.1" xmlns:xlink="http://www.w3.org/1999/xlink" xmlns:svgjs="http://svgjs.com/svgjs" width="59" height="81"><defs id="SvgjsDefs1018"></defs><path id="SvgjsPath1019" d="M1274 3267C1284.49 3267 1293 3275.51 1293 3286C1293 3296.49 1284.49 3305 1274 3305C1263.51 3305 1255 3296.49 1255 3286C1255 3275.51 1263.51 3267 1274 3267Z " fill="#febe10" transform="matrix(1,0,0,1,-1245,-3258)"></path><path id="SvgjsPath1020" d="M1247 3298L1247 3335L1256 3327L1265 3335L1265 3312L1256 3307Z " fill="#f5495b" transform="matrix(1,0,0,1,-1245,-3258)"></path><path id="SvgjsPath1021" d="M1274 3307.99C1262.42 3307.99 1253 3298.58 1253 3287C1253 3275.43 1262.42 3266.01 1274 3266.01C1285.59 3266.01 1295.01 3275.4300000000003 1295.01 3287C1295.01 3298.58 1285.59 3307.99 1274 3307.99ZM1274 3269.79C1264.5 3269.79 1256.78 3277.5099999999998 1256.78 3287C1256.78 3296.5 1264.5 3304.22 1274 3304.22C1283.51 3304.22 1291.23 3296.5 1291.23 3287C1291.23 3277.51 1283.51 3269.79 1274 3269.79ZM1246.39 3338.01C1246.15 3338.01 1246.19 3337.9700000000003 1245.95 3337.88C1245.21 3337.59 1245 3336.8900000000003 1245 3336.12L1245 3286.88L1245.00025 3286.8797600000003C1245.06531 3270.9547900000002 1258.05013 3258.01 1274 3258.01C1290 3258.01 1303.01 3271.0200000000004 1303.01 3287C1303.01 3287.36302 1303.0032899999999 3287.7245 1302.99 3288.08433L1302.99 3336.1200000000003C1302.99 3336.8900000000003 1302.22 3337.59 1301.48 3337.8800000000006C1301.25 3337.9700000000007 1300.73 3338.0100000000007 1300.49 3338.0100000000007C1299.97 3338.0100000000007 1299.45 3337.8000000000006 1299.08 3337.4100000000008L1291.21 3329.2200000000007L1283.8 3336.9500000000007C1283.26 3337.520000000001 1282.69 3337.710000000001 1281.95 3337.4200000000005C1281.21 3337.1400000000003 1280.99 3336.4400000000005 1280.99 3335.6600000000003L1280.99 3315.1399400000005C1278.7506 3315.6952600000004 1276.40919 3315.9900000000007 1274 3315.9900000000007C1271.58734 3315.9900000000007 1269.24252 3315.6940400000008 1267 3315.136490000001L1267 3335.6600000000008C1267 3336.440000000001 1266.23 3337.140000000001 1265.49 3337.420000000001C1264.75 3337.710000000001 1263.77 3337.520000000001 1263.22 3336.950000000001L1255.75 3329.220000000001L1247.84 3337.410000000001C1247.47 3337.800000000001 1246.9199999999998 3338.010000000001 1246.3899999999999 3338.010000000001ZM1248.79084 3286.79313L1248.8799999999999 3286.88L1248.8799999999999 3289.14001C1249.9697899999999 3302.04243 1260.8207 3312.21 1273.9999999999998 3312.21C1287.1120899999999 3312.21 1297.9139099999998 3302.16032 1299.1099999999997 3289.36479L1299.1099999999997 3287.88L1299.2079599999997 3287.78456C1299.2159699999997 3287.524 1299.2199999999998 3287.26246 1299.2199999999998 3287C1299.2199999999998 3273.11 1287.9099999999999 3261.8 1273.9999999999998 3261.8C1260.1690699999997 3261.8 1248.9024599999998 3272.9978800000004 1248.7908399999997 3286.79313ZM1248.88 3301.47642L1248.88 3331.33L1254.5400000000002 3324.95C1254.9020100000002 3324.5782 1255.2640200000003 3324.16812 1255.78526 3324.15058C1256.3222 3324.16812 1257.04799 3324.57842 1257.41 3324.96L1263.1100000000001 3330.86L1263.1100000000001 3314.06C1263.1100000000001 3313.99702 1263.11319 3313.93475 1263.1194200000002 3313.87331C1257.1105300000002 3311.43378 1252.0983700000002 3307.03632 1248.88 3301.47642ZM1284.87119 3313.8794C1284.8770200000001 3313.9388599999997 1284.88 3313.9991099999997 1284.88 3314.06L1284.88 3330.86L1290.0600000000002 3324.96C1290.4220100000002 3324.57842 1290.7840300000003 3324.16812 1291.30527 3324.15058C1291.8426200000001 3324.16811 1292.57777 3324.5782 1292.93 3324.95L1299.1100000000001 3331.33L1299.1100000000001 3301.5102899999997C1295.88775 3307.0588 1290.8770000000002 3311.4460499999996 1284.87119 3313.8794ZM1255.75 3324.15L1255.82 3324.15C1255.80834 3324.15 1255.79676 3324.1502 1255.7852599999999 3324.15058C1255.7734099999998 3324.15019 1255.76166 3324.15 1255.7499999999998 3324.15ZM1291.27 3324.15L1291.34 3324.15C1291.32834 3324.15 1291.31677 3324.1502 1291.3052699999998 3324.15058C1291.2934099999998 3324.15019 1291.2816599999999 3324.15 1291.2699999999998 3324.15Z " fill="#0044a9" transform="matrix(1,0,0,1,-1245,-3258)"></path><path id="SvgjsPath1022" d="M1274 3267C1284.49 3267 1293 3275.51 1293 3286C1293 3296.49 1284.49 3305 1274 3305C1263.51 3305 1255 3296.49 1255 3286C1255 3275.51 1263.51 3267 1274 3267Z " fill="#febe10" transform="matrix(1,0,0,1,-1245,-3258)"></path><path id="SvgjsPath1023" d="M1247 3298L1247 3335L1256 3327L1265 3335L1265 3312L1256 3307Z " fill="#f5495b" transform="matrix(1,0,0,1,-1245,-3258)"></path><path id="SvgjsPath1024" d="M1274 3307.99C1262.42 3307.99 1253 3298.58 1253 3287C1253 3275.43 1262.42 3266.01 1274 3266.01C1285.59 3266.01 1295.01 3275.4300000000003 1295.01 3287C1295.01 3298.58 1285.59 3307.99 1274 3307.99ZM1274 3269.79C1264.5 3269.79 1256.78 3277.5099999999998 1256.78 3287C1256.78 3296.5 1264.5 3304.22 1274 3304.22C1283.51 3304.22 1291.23 3296.5 1291.23 3287C1291.23 3277.51 1283.51 3269.79 1274 3269.79ZM1246.39 3338.01C1246.15 3338.01 1246.19 3337.9700000000003 1245.95 3337.88C1245.21 3337.59 1245 3336.8900000000003 1245 3336.12L1245 3286.88L1245.00025 3286.8797600000003C1245.06531 3270.9547900000002 1258.05013 3258.01 1274 3258.01C1290 3258.01 1303.01 3271.0200000000004 1303.01 3287C1303.01 3287.36302 1303.0032899999999 3287.7245 1302.99 3288.08433L1302.99 3336.1200000000003C1302.99 3336.8900000000003 1302.22 3337.59 1301.48 3337.8800000000006C1301.25 3337.9700000000007 1300.73 3338.0100000000007 1300.49 3338.0100000000007C1299.97 3338.0100000000007 1299.45 3337.8000000000006 1299.08 3337.4100000000008L1291.21 3329.2200000000007L1283.8 3336.9500000000007C1283.26 3337.520000000001 1282.69 3337.710000000001 1281.95 3337.4200000000005C1281.21 3337.1400000000003 1280.99 3336.4400000000005 1280.99 3335.6600000000003L1280.99 3315.1399400000005C1278.7506 3315.6952600000004 1276.40919 3315.9900000000007 1274 3315.9900000000007C1271.58734 3315.9900000000007 1269.24252 3315.6940400000008 1267 3315.136490000001L1267 3335.6600000000008C1267 3336.440000000001 1266.23 3337.140000000001 1265.49 3337.420000000001C1264.75 3337.710000000001 1263.77 3337.520000000001 1263.22 3336.950000000001L1255.75 3329.220000000001L1247.84 3337.410000000001C1247.47 3337.800000000001 1246.9199999999998 3338.010000000001 1246.3899999999999 3338.010000000001ZM1248.79084 3286.79313L1248.8799999999999 3286.88L1248.8799999999999 3289.14001C1249.9697899999999 3302.04243 1260.8207 3312.21 1273.9999999999998 3312.21C1287.1120899999999 3312.21 1297.9139099999998 3302.16032 1299.1099999999997 3289.36479L1299.1099999999997 3287.88L1299.2079599999997 3287.78456C1299.2159699999997 3287.524 1299.2199999999998 3287.26246 1299.2199999999998 3287C1299.2199999999998 3273.11 1287.9099999999999 3261.8 1273.9999999999998 3261.8C1260.1690699999997 3261.8 1248.9024599999998 3272.9978800000004 1248.7908399999997 3286.79313ZM1248.88 3301.47642L1248.88 3331.33L1254.5400000000002 3324.95C1254.9020100000002 3324.5782 1255.2640200000003 3324.16812 1255.78526 3324.15058C1256.3222 3324.16812 1257.04799 3324.57842 1257.41 3324.96L1263.1100000000001 3330.86L1263.1100000000001 3314.06C1263.1100000000001 3313.99702 1263.11319 3313.93475 1263.1194200000002 3313.87331C1257.1105300000002 3311.43378 1252.0983700000002 3307.03632 1248.88 3301.47642ZM1284.87119 3313.8794C1284.8770200000001 3313.9388599999997 1284.88 3313.9991099999997 1284.88 3314.06L1284.88 3330.86L1290.0600000000002 3324.96C1290.4220100000002 3324.57842 1290.7840300000003 3324.16812 1291.30527 3324.15058C1291.8426200000001 3324.16811 1292.57777 3324.5782 1292.93 3324.95L1299.1100000000001 3331.33L1299.1100000000001 3301.5102899999997C1295.88775 3307.0588 1290.8770000000002 3311.4460499999996 1284.87119 3313.8794ZM1255.75 3324.15L1255.82 3324.15C1255.80834 3324.15 1255.79676 3324.1502 1255.7852599999999 3324.15058C1255.7734099999998 3324.15019 1255.76166 3324.15 1255.7499999999998 3324.15ZM1291.27 3324.15L1291.34 3324.15C1291.32834 3324.15 1291.31677 3324.1502 1291.3052699999998 3324.15058C1291.2934099999998 3324.15019 1291.2816599999999 3324.15 1291.2699999999998 3324.15Z " fill="#0044a9" transform="matrix(1,0,0,1,-1245,-3258)"></path></svg>