<svg id="SvgjsSvg1012" xmlns="http://www.w3.org/2000/svg" version="1.1" xmlns:xlink="http://www.w3.org/1999/xlink" xmlns:svgjs="http://svgjs.com/svgjs" width="11" height="18"><defs id="SvgjsDefs1013"></defs><path id="SvgjsPath1014" d="M349.5 7.99975C346.467 7.99975 344 10.5224 344 13.6229C344 14.871599999999999 344.78 16.908 346.384 19.847099999999998C347.519 21.926199999999998 348.635 23.659699999999997 348.682 23.732799999999997L349.5 24.999599999999997L350.317 23.732799999999997C350.36400000000003 23.659699999999997 351.481 21.926199999999998 352.615 19.847399999999997C354.22 16.907999999999998 355 14.871599999999997 355 13.622899999999998C355 10.522399999999998 352.533 7.999749999999998 349.5 7.999749999999998ZM349.5 16.4997C347.925 16.4997 346.649 15.194700000000001 346.649 13.584800000000001C346.649 11.974900000000002 347.925 10.670300000000001 349.5 10.670300000000001C351.074 10.670300000000001 352.351 11.974900000000002 352.351 13.584800000000001C352.351 15.194700000000001 351.074 16.4997 349.5 16.4997Z " fill="#000000" transform="matrix(1,0,0,1,-344,-7)"></path><path id="SvgjsPath1015" d="M349.5 7.99975C346.467 7.99975 344 10.5224 344 13.6229C344 14.871599999999999 344.78 16.908 346.384 19.847099999999998C347.519 21.926199999999998 348.635 23.659699999999997 348.682 23.732799999999997L349.5 24.999599999999997L350.317 23.732799999999997C350.36400000000003 23.659699999999997 351.481 21.926199999999998 352.615 19.847399999999997C354.22 16.907999999999998 355 14.871599999999997 355 13.622899999999998C355 10.522399999999998 352.533 7.999749999999998 349.5 7.999749999999998ZM349.5 16.4997C347.925 16.4997 346.649 15.194700000000001 346.649 13.584800000000001C346.649 11.974900000000002 347.925 10.670300000000001 349.5 10.670300000000001C351.074 10.670300000000001 352.351 11.974900000000002 352.351 13.584800000000001C352.351 15.194700000000001 351.074 16.4997 349.5 16.4997Z " fill="#ffffff" fill-opacity="1" transform="matrix(1,0,0,1,-344,-7)"></path></svg>