<svg id="SvgjsSvg1000" xmlns="http://www.w3.org/2000/svg" version="1.1" xmlns:xlink="http://www.w3.org/1999/xlink" xmlns:svgjs="http://svgjs.com/svgjs" width="50" height="50"><defs id="SvgjsDefs1001"></defs><path id="SvgjsPath1007" d="M392.356 759.57L378.429 759.57L378.429 745.644C378.429 744.736 377.693 744 376.78499999999997 744L361.215 744C360.30699999999996 744 359.57 744.736 359.57 745.644L359.57 759.57L345.644 759.57C344.736 759.57 344 760.307 344 761.214L344 776.7860000000001C344 777.6940000000001 344.736 778.4300000000001 345.644 778.4300000000001L359.57 778.4300000000001L359.57 792.355C359.57 793.263 360.307 794 361.215 794L376.78499999999997 794C377.693 794 378.429 793.263 378.429 792.355L378.429 778.4300000000001L392.356 778.4300000000001C393.264 778.4300000000001 394 777.6940000000001 394 776.7860000000001L394 761.214C394 760.307 393.264 759.57 392.356 759.57ZM376.785 775.142C375.877 775.142 375.141 775.878 375.141 776.7860000000001L375.141 790.711L362.85900000000004 790.711L362.85900000000004 776.7860000000001C362.85900000000004 775.878 362.12300000000005 775.142 361.21500000000003 775.142L347.288 775.142L347.288 762.8580000000001L361.21500000000003 762.8580000000001C362.12300000000005 762.8580000000001 362.85900000000004 762.1220000000001 362.85900000000004 761.214L362.85900000000004 747.288L375.141 747.288L375.141 761.214C375.141 762.1220000000001 375.877 762.8580000000001 376.785 762.8580000000001L390.711 762.8580000000001L390.711 775.142Z " fill="#000000" transform="matrix(1,0,0,1,-344,-744)"></path><path id="SvgjsPath1008" d="M392.356 759.57L378.429 759.57L378.429 745.644C378.429 744.736 377.693 744 376.78499999999997 744L361.215 744C360.30699999999996 744 359.57 744.736 359.57 745.644L359.57 759.57L345.644 759.57C344.736 759.57 344 760.307 344 761.214L344 776.7860000000001C344 777.6940000000001 344.736 778.4300000000001 345.644 778.4300000000001L359.57 778.4300000000001L359.57 792.355C359.57 793.263 360.307 794 361.215 794L376.78499999999997 794C377.693 794 378.429 793.263 378.429 792.355L378.429 778.4300000000001L392.356 778.4300000000001C393.264 778.4300000000001 394 777.6940000000001 394 776.7860000000001L394 761.214C394 760.307 393.264 759.57 392.356 759.57ZM376.785 775.142C375.877 775.142 375.141 775.878 375.141 776.7860000000001L375.141 790.711L362.85900000000004 790.711L362.85900000000004 776.7860000000001C362.85900000000004 775.878 362.12300000000005 775.142 361.21500000000003 775.142L347.288 775.142L347.288 762.8580000000001L361.21500000000003 762.8580000000001C362.12300000000005 762.8580000000001 362.85900000000004 762.1220000000001 362.85900000000004 761.214L362.85900000000004 747.288L375.141 747.288L375.141 761.214C375.141 762.1220000000001 375.877 762.8580000000001 376.785 762.8580000000001L390.711 762.8580000000001L390.711 775.142Z " fill="#1f4ba5" fill-opacity="1" transform="matrix(1,0,0,1,-344,-744)"></path></svg>