<svg id="SvgjsSvg1000" xmlns="http://www.w3.org/2000/svg" version="1.1" xmlns:xlink="http://www.w3.org/1999/xlink" xmlns:svgjs="http://svgjs.com/svgjs" width="15" height="15"><defs id="SvgjsDefs1001"></defs><path id="SvgjsPath1007" d="M1188.79 91.909C1189.34 91.0176 1189.67 89.96270000000001 1189.67 88.8345C1189.67 85.61710000000001 1187.0600000000002 83.01180000000001 1183.8300000000002 83.01180000000001C1180.6100000000001 83.01180000000001 1178.0000000000002 85.61710000000001 1178.0000000000002 88.8345C1178.0000000000002 92.0522 1180.6100000000001 94.65780000000001 1183.8300000000002 94.65780000000001C1184.9700000000003 94.65780000000001 1186.0200000000002 94.33510000000001 1186.91 93.77890000000001L1190.74 97.5991C1191.26 98.1149 1192.1 98.1149 1192.61 97.5991C1193.1299999999999 97.0832 1193.1299999999999 96.245 1192.61 95.7291ZM1183.45 87.0047C1182.73 87.1707 1182.16 87.7831 1181.99 88.4522C1181.93 88.765 1181.66 89.0008 1181.33 89.0008C1180.96 89.0008 1180.6599999999999 88.7016 1180.6599999999999 88.3353C1180.6599999999999 87.8565 1181.07 87.1276 1181.62 86.5818C1182.1599999999999 86.0496 1182.8 85.6737 1183.33 85.6737C1183.6999999999998 85.6737 1184 85.98299999999999 1184 86.3492C1184 86.67519999999999 1183.76 86.9477 1183.45 87.0047ZM1183.83 92.9938C1181.53 92.9938 1179.6599999999999 91.1309 1179.6599999999999 88.83449999999999C1179.6599999999999 86.53869999999999 1181.5299999999997 84.67519999999999 1183.83 84.67519999999999C1186.1299999999999 84.67519999999999 1188 86.53869999999999 1188 88.83449999999999C1188 91.1309 1186.13 92.9938 1183.83 92.9938Z " fill="#0044a9" transform="matrix(1,0,0,1,-1178,-83)"></path></svg>