<svg id="SvgjsSvg1008" xmlns="http://www.w3.org/2000/svg" version="1.1" xmlns:xlink="http://www.w3.org/1999/xlink" xmlns:svgjs="http://svgjs.com/svgjs" width="6" height="12"><defs id="SvgjsDefs1009"></defs><path id="SvgjsPath1010" d="M1094.67 508.886C1094.6000000000001 508.96200000000005 1094.5 509 1094.39 509C1094.2900000000002 509 1094.19 508.962 1094.1200000000001 508.886C1093.96 508.73400000000004 1093.96 508.488 1094.1200000000001 508.336L1099.0200000000002 503.499L1094.1200000000001 498.663C1093.96 498.512 1093.96 498.265 1094.1200000000001 498.113C1094.2700000000002 497.962 1094.5200000000002 497.962 1094.67 498.113L1099.8600000000001 503.225C1100.0100000000002 503.37600000000003 1100.0100000000002 503.62300000000005 1099.8600000000001 503.774Z " fill="#000000" transform="matrix(1,0,0,1,-1094,-497)"></path><path id="SvgjsPath1011" d="M1094.67 508.886C1094.6000000000001 508.96200000000005 1094.5 509 1094.39 509C1094.2900000000002 509 1094.19 508.962 1094.1200000000001 508.886C1093.96 508.73400000000004 1093.96 508.488 1094.1200000000001 508.336L1099.0200000000002 503.499L1094.1200000000001 498.663C1093.96 498.512 1093.96 498.265 1094.1200000000001 498.113C1094.2700000000002 497.962 1094.5200000000002 497.962 1094.67 498.113L1099.8600000000001 503.225C1100.0100000000002 503.37600000000003 1100.0100000000002 503.62300000000005 1099.8600000000001 503.774Z " fill="#1f4ba5" fill-opacity="1" transform="matrix(1,0,0,1,-1094,-497)"></path></svg>