<svg id="SvgjsSvg1009" xmlns="http://www.w3.org/2000/svg" version="1.1" xmlns:xlink="http://www.w3.org/1999/xlink" xmlns:svgjs="http://svgjs.com/svgjs" width="95" height="81"><defs id="SvgjsDefs1010"></defs><path id="SvgjsPath1011" d="M426 3287C437.046 3287 446 3295.95 446 3307C446 3318.04 437.046 3327 426 3327C414.954 3327 406 3318.04 406 3307C406 3295.95 414.954 3287 426 3287Z " fill="#febe10" transform="matrix(1,0,0,1,-364,-3259)"></path><path id="SvgjsPath1012" d="M426.427 3339.72C408.834 3339.72 394.521 3325.3999999999996 394.521 3307.79C394.521 3290.79933 407.8601 3276.85615 424.612 3275.91107L424.612 3272.4100000000003L420.175 3272.4100000000003C417.724 3272.4100000000003 415.737 3270.4300000000003 415.737 3267.9700000000003L415.737 3264.17C415.737 3261.7200000000003 417.72400000000005 3259.73 420.175 3259.73L432.853 3259.73C435.30400000000003 3259.73 437.291 3261.72 437.291 3264.17L437.291 3267.9700000000003C437.291 3270.4300000000003 435.304 3272.4100000000003 432.853 3272.4100000000003L428.416 3272.4100000000003L428.416 3275.9213600000003C445.0861 3276.95281 458.332 3290.8582 458.332 3307.7900000000004C458.332 3325.4000000000005 444.02 3339.7200000000003 426.427 3339.7200000000003ZM426.427 3279.67C410.932 3279.67 398.32500000000005 3292.29 398.32500000000005 3307.79C398.32500000000005 3323.3 410.932 3335.91 426.427 3335.91C441.923 3335.91 454.528 3323.2999999999997 454.528 3307.79C454.528 3292.29 441.923 3279.67 426.427 3279.67ZM426.427 3330.01C414.182 3330.01 404.22 3320.05 404.22 3307.7900000000004C404.22 3295.5400000000004 414.182 3285.5700000000006 426.427 3285.5700000000006C438.67100000000005 3285.5700000000006 448.634 3295.5400000000004 448.634 3307.7900000000004C448.634 3320.0500000000006 438.671 3330.01 426.427 3330.01ZM426.427 3289.38C416.28000000000003 3289.38 408.024 3297.6400000000003 408.024 3307.79C408.024 3317.95 416.28 3326.21 426.427 3326.21C436.574 3326.21 444.83000000000004 3317.95 444.83000000000004 3307.79C444.83000000000004 3297.64 436.57400000000007 3289.38 426.427 3289.38ZM426.871 3304.88L441.769 3307.3L427.184 3311.21C425.454 3311.67 423.67600000000004 3310.65 423.214 3308.92C422.751 3307.19 423.779 3305.41 425.51 3304.94C425.96299999999997 3304.82 426.435 3304.81 426.871 3304.88ZM433.487 3264.17C433.487 3263.82 433.204 3263.53 432.853 3263.53L420.175 3263.53C419.824 3263.53 419.541 3263.82 419.541 3264.17L419.541 3267.9700000000003C419.541 3268.32 419.824 3268.61 420.175 3268.61L432.853 3268.61C433.204 3268.61 433.487 3268.32 433.487 3267.9700000000003Z " fill="#0044a9" transform="matrix(1,0,0,1,-364,-3259)"></path><path id="SvgjsPath1013" d="M375 3276L403 3276C404.104 3276 405 3276.89 405 3278C405 3279.1 404.104 3280 403 3280L375 3280C373.895 3280 373 3279.1 373 3278C373 3276.89 373.895 3276 375 3276ZM370 3286L393 3286C394.105 3286 395 3286.89 395 3288C395 3289.1 394.105 3290 393 3290L370 3290C368.895 3290 368 3289.1 368 3288C368 3286.89 368.895 3286 370 3286ZM366 3296L389 3296C390.104 3296 391 3296.89 391 3298C391 3299.1 390.104 3300 389 3300L366 3300C364.895 3300 364 3299.1 364 3298C364 3296.89 364.895 3296 366 3296Z " fill="#f55b6b" transform="matrix(1,0,0,1,-364,-3259)"></path><path id="SvgjsPath1014" d="M426 3287C437.046 3287 446 3295.95 446 3307C446 3318.04 437.046 3327 426 3327C414.954 3327 406 3318.04 406 3307C406 3295.95 414.954 3287 426 3287Z " fill="#febe10" transform="matrix(1,0,0,1,-364,-3259)"></path><path id="SvgjsPath1015" d="M426.427 3339.72C408.834 3339.72 394.521 3325.3999999999996 394.521 3307.79C394.521 3290.79933 407.8601 3276.85615 424.612 3275.91107L424.612 3272.4100000000003L420.175 3272.4100000000003C417.724 3272.4100000000003 415.737 3270.4300000000003 415.737 3267.9700000000003L415.737 3264.17C415.737 3261.7200000000003 417.72400000000005 3259.73 420.175 3259.73L432.853 3259.73C435.30400000000003 3259.73 437.291 3261.72 437.291 3264.17L437.291 3267.9700000000003C437.291 3270.4300000000003 435.304 3272.4100000000003 432.853 3272.4100000000003L428.416 3272.4100000000003L428.416 3275.9213600000003C445.0861 3276.95281 458.332 3290.8582 458.332 3307.7900000000004C458.332 3325.4000000000005 444.02 3339.7200000000003 426.427 3339.7200000000003ZM426.427 3279.67C410.932 3279.67 398.32500000000005 3292.29 398.32500000000005 3307.79C398.32500000000005 3323.3 410.932 3335.91 426.427 3335.91C441.923 3335.91 454.528 3323.2999999999997 454.528 3307.79C454.528 3292.29 441.923 3279.67 426.427 3279.67ZM426.427 3330.01C414.182 3330.01 404.22 3320.05 404.22 3307.7900000000004C404.22 3295.5400000000004 414.182 3285.5700000000006 426.427 3285.5700000000006C438.67100000000005 3285.5700000000006 448.634 3295.5400000000004 448.634 3307.7900000000004C448.634 3320.0500000000006 438.671 3330.01 426.427 3330.01ZM426.427 3289.38C416.28000000000003 3289.38 408.024 3297.6400000000003 408.024 3307.79C408.024 3317.95 416.28 3326.21 426.427 3326.21C436.574 3326.21 444.83000000000004 3317.95 444.83000000000004 3307.79C444.83000000000004 3297.64 436.57400000000007 3289.38 426.427 3289.38ZM426.871 3304.88L441.769 3307.3L427.184 3311.21C425.454 3311.67 423.67600000000004 3310.65 423.214 3308.92C422.751 3307.19 423.779 3305.41 425.51 3304.94C425.96299999999997 3304.82 426.435 3304.81 426.871 3304.88ZM433.487 3264.17C433.487 3263.82 433.204 3263.53 432.853 3263.53L420.175 3263.53C419.824 3263.53 419.541 3263.82 419.541 3264.17L419.541 3267.9700000000003C419.541 3268.32 419.824 3268.61 420.175 3268.61L432.853 3268.61C433.204 3268.61 433.487 3268.32 433.487 3267.9700000000003Z " fill="#0044a9" transform="matrix(1,0,0,1,-364,-3259)"></path><path id="SvgjsPath1016" d="M375 3276L403 3276C404.104 3276 405 3276.89 405 3278C405 3279.1 404.104 3280 403 3280L375 3280C373.895 3280 373 3279.1 373 3278C373 3276.89 373.895 3276 375 3276ZM370 3286L393 3286C394.105 3286 395 3286.89 395 3288C395 3289.1 394.105 3290 393 3290L370 3290C368.895 3290 368 3289.1 368 3288C368 3286.89 368.895 3286 370 3286ZM366 3296L389 3296C390.104 3296 391 3296.89 391 3298C391 3299.1 390.104 3300 389 3300L366 3300C364.895 3300 364 3299.1 364 3298C364 3296.89 364.895 3296 366 3296Z " fill="#f55b6b" transform="matrix(1,0,0,1,-364,-3259)"></path></svg>