<svg xmlns="http://www.w3.org/2000/svg" xmlns:xlink="http://www.w3.org/1999/xlink" width="105" height="356" viewBox="0 0 105 356"><svg width="19" height="15" viewBox="-5 -5 19 15" id="arrow-dwon" y="0"><path d="M4.99 5a.604.604 0 0 1-.397-.144l-3.447-3.02a.45.45 0 0 1 0-.695.62.62 0 0 1 .794 0l3.05 2.672 3.05-2.671a.62.62 0 0 1 .794 0 .45.45 0 0 1 0 .695L5.387 4.856A.604.604 0 0 1 4.99 5z"></path><path d="M4.99 5a.604.604 0 0 1-.397-.144l-3.447-3.02a.45.45 0 0 1 0-.695.62.62 0 0 1 .794 0l3.05 2.672 3.05-2.671a.62.62 0 0 1 .794 0 .45.45 0 0 1 0 .695L5.387 4.856A.604.604 0 0 1 4.99 5z" fill="#fff"></path></svg><svg width="26" height="24" viewBox="-5 -5 26 24" id="cart" y="15"><path d="M14.73 3.247L3.92 3.245l-.45-1.56a.717.717 0 0 0-.49-.48L1.39.776a.697.697 0 0 0-.85.492c-.05.18-.03.369.06.53.1.162.25.278.43.327l1.21.326 2.44 8.837c-.34.172-.57.529-.57.926 0 .57.46 1.033 1.03 1.033.57 0 1.04-.463 1.04-1.033v-.04h4.98v.04c0 .57.46 1.033 1.03 1.033.57 0 1.04-.463 1.04-1.033 0-.524-.4-.963-.91-1.025-1.24-.2-6.3-.445-6.3-.445l-.16-.65h6.31c.32 0 .61-.217.7-.528l1.36-4.805h.5c.42 0 .76-.34.76-.757a.759.759 0 0 0-.76-.757zm-2 1.673l-1 3.527c0 .023-.03.039-.05.039H5.51c-.03-.001-.08.006-.1-.07l-.07-.23-.93-3.266c0-.016 0-.033.01-.046a.06.06 0 0 1 .04-.021h8.22c.02 0 .03.007.04.02.01.014.02.031.01.047z" fill="#44d654"></path></svg><svg width="69" height="91" viewBox="-5 -5 69 91" id="medal" y="39"><path d="M29 9c10.49 0 19 8.51 19 19s-8.51 19-19 19-19-8.51-19-19S18.51 9 29 9z" fill="#febe10"></path><path d="M2 40v37l9-8 9 8V54l-9-5z" fill="#f5495b"></path><path d="M29 49.99C17.42 49.99 8 40.58 8 29 8 17.43 17.42 8.01 29 8.01c11.59 0 21.01 9.42 21.01 20.99 0 11.58-9.42 20.99-21.01 20.99zm0-38.2c-9.5 0-17.22 7.72-17.22 17.21 0 9.5 7.72 17.22 17.22 17.22 9.51 0 17.23-7.72 17.23-17.22 0-9.49-7.72-17.21-17.23-17.21zM1.39 80.01c-.24 0-.2-.04-.44-.13-.74-.29-.95-.99-.95-1.76V28.88C.065 12.955 13.05.01 29 .01 45 .01 58.01 13.02 58.01 29c0 .363-.007.724-.02 1.084V78.12c0 .77-.77 1.47-1.51 1.76-.23.09-.75.13-.99.13-.52 0-1.04-.21-1.41-.6l-7.87-8.19-7.41 7.73c-.54.57-1.11.76-1.85.47-.74-.28-.96-.98-.96-1.76V57.14c-2.24.555-4.58.85-6.99.85a28.98 28.98 0 0 1-7-.854V77.66c0 .78-.77 1.48-1.51 1.76-.74.29-1.72.1-2.27-.47l-7.47-7.73-7.91 8.19c-.37.39-.92.6-1.45.6zm2.4-51.217l.09.087v2.26C4.97 44.042 15.82 54.21 29 54.21c13.112 0 23.914-10.05 25.11-22.845V29.88l.098-.095c.008-.261.012-.523.012-.785C54.22 15.11 42.91 3.8 29 3.8 15.17 3.8 3.902 14.998 3.79 28.793zm.09 14.683V73.33l5.66-6.38c.362-.372.724-.782 1.245-.8.537.018 1.263.428 1.625.81l5.7 5.9v-16.8c0-.063.003-.125.01-.187A29.17 29.17 0 0 1 3.88 43.476zM39.871 55.88c.006.06.009.12.009.181v16.8l5.18-5.9c.362-.382.724-.792 1.245-.81.538.018 1.273.428 1.625.8l6.18 6.38V43.51a29.17 29.17 0 0 1-14.239 12.37zM10.75 66.15h.07a1.052 1.052 0 0 0-.07 0zm35.52 0h.07a1.051 1.051 0 0 0-.07 0z" fill="#0044a9"></path><path d="M29 9c10.49 0 19 8.51 19 19s-8.51 19-19 19-19-8.51-19-19S18.51 9 29 9z" fill="#febe10"></path><path d="M2 40v37l9-8 9 8V54l-9-5z" fill="#f5495b"></path><path d="M29 49.99C17.42 49.99 8 40.58 8 29 8 17.43 17.42 8.01 29 8.01c11.59 0 21.01 9.42 21.01 20.99 0 11.58-9.42 20.99-21.01 20.99zm0-38.2c-9.5 0-17.22 7.72-17.22 17.21 0 9.5 7.72 17.22 17.22 17.22 9.51 0 17.23-7.72 17.23-17.22 0-9.49-7.72-17.21-17.23-17.21zM1.39 80.01c-.24 0-.2-.04-.44-.13-.74-.29-.95-.99-.95-1.76V28.88C.065 12.955 13.05.01 29 .01 45 .01 58.01 13.02 58.01 29c0 .363-.007.724-.02 1.084V78.12c0 .77-.77 1.47-1.51 1.76-.23.09-.75.13-.99.13-.52 0-1.04-.21-1.41-.6l-7.87-8.19-7.41 7.73c-.54.57-1.11.76-1.85.47-.74-.28-.96-.98-.96-1.76V57.14c-2.24.555-4.58.85-6.99.85a28.98 28.98 0 0 1-7-.854V77.66c0 .78-.77 1.48-1.51 1.76-.74.29-1.72.1-2.27-.47l-7.47-7.73-7.91 8.19c-.37.39-.92.6-1.45.6zm2.4-51.217l.09.087v2.26C4.97 44.042 15.82 54.21 29 54.21c13.112 0 23.914-10.05 25.11-22.845V29.88l.098-.095c.008-.261.012-.523.012-.785C54.22 15.11 42.91 3.8 29 3.8 15.17 3.8 3.902 14.998 3.79 28.793zm.09 14.683V73.33l5.66-6.38c.362-.372.724-.782 1.245-.8.537.018 1.263.428 1.625.81l5.7 5.9v-16.8c0-.063.003-.125.01-.187A29.17 29.17 0 0 1 3.88 43.476zM39.871 55.88c.006.06.009.12.009.181v16.8l5.18-5.9c.362-.382.724-.792 1.245-.81.538.018 1.273.428 1.625.8l6.18 6.38V43.51a29.17 29.17 0 0 1-14.239 12.37zM10.75 66.15h.07a1.052 1.052 0 0 0-.07 0zm35.52 0h.07a1.051 1.051 0 0 0-.07 0z" fill="#0044a9"></path></svg><svg width="21" height="28" viewBox="-5 -5 21 28" id="pin" y="130"><path d="M5.5 1C2.467 1 0 3.522 0 6.623c0 1.249.78 3.285 2.384 6.224 1.135 2.08 2.251 3.813 2.298 3.886L5.5 18l.817-1.267c.047-.073 1.164-1.807 2.298-3.886C10.22 9.908 11 7.872 11 6.623 11 3.523 8.533 1 5.5 1zm0 8.5c-1.575 0-2.851-1.305-2.851-2.915S3.925 3.67 5.5 3.67c1.574 0 2.851 1.305 2.851 2.915S7.074 9.5 5.5 9.5z"></path><path d="M5.5 1C2.467 1 0 3.522 0 6.623c0 1.249.78 3.285 2.384 6.224 1.135 2.08 2.251 3.813 2.298 3.886L5.5 18l.817-1.267c.047-.073 1.164-1.807 2.298-3.886C10.22 9.908 11 7.872 11 6.623 11 3.523 8.533 1 5.5 1zm0 8.5c-1.575 0-2.851-1.305-2.851-2.915S3.925 3.67 5.5 3.67c1.574 0 2.851 1.305 2.851 2.915S7.074 9.5 5.5 9.5z" fill="#fff"></path></svg><svg width="60" height="60" viewBox="-5 -5 60 60" id="plus" y="158"><path d="M48.356 15.57H34.429V1.644C34.429.736 33.693 0 32.785 0h-15.57c-.908 0-1.645.736-1.645 1.644V15.57H1.644C.736 15.57 0 16.307 0 17.214v15.572c0 .908.736 1.644 1.644 1.644H15.57v13.925c0 .908.737 1.645 1.645 1.645h15.57c.908 0 1.644-.737 1.644-1.645V34.43h13.927c.908 0 1.644-.736 1.644-1.644V17.214c0-.907-.736-1.644-1.644-1.644zM32.785 31.142c-.908 0-1.644.736-1.644 1.644v13.925H18.859V32.786c0-.908-.736-1.644-1.644-1.644H3.288V18.858h13.927c.908 0 1.644-.736 1.644-1.644V3.288h12.282v13.926c0 .908.736 1.644 1.644 1.644h13.926v12.284z"></path><path d="M48.356 15.57H34.429V1.644C34.429.736 33.693 0 32.785 0h-15.57c-.908 0-1.645.736-1.645 1.644V15.57H1.644C.736 15.57 0 16.307 0 17.214v15.572c0 .908.736 1.644 1.644 1.644H15.57v13.925c0 .908.737 1.645 1.645 1.645h15.57c.908 0 1.644-.737 1.644-1.645V34.43h13.927c.908 0 1.644-.736 1.644-1.644V17.214c0-.907-.736-1.644-1.644-1.644zM32.785 31.142c-.908 0-1.644.736-1.644 1.644v13.925H18.859V32.786c0-.908-.736-1.644-1.644-1.644H3.288V18.858h13.927c.908 0 1.644-.736 1.644-1.644V3.288h12.282v13.926c0 .908.736 1.644 1.644 1.644h13.926v12.284z" fill="#1f4ba5"></path></svg><svg width="25" height="25" viewBox="-5 -5 25 25" id="search" y="218"><path d="M10.79 8.909a5.85 5.85 0 0 0 .88-3.074c0-3.218-2.61-5.823-5.84-5.823A5.825 5.825 0 0 0 0 5.835a5.826 5.826 0 0 0 5.83 5.823c1.14 0 2.19-.323 3.08-.88l3.83 3.821a1.323 1.323 0 0 0 1.87-1.87zM5.45 4.005c-.72.166-1.29.778-1.46 1.447a.672.672 0 0 1-1.33-.117c0-.479.41-1.207.96-1.753.54-.532 1.18-.908 1.71-.908.37 0 .67.309.67.675 0 .326-.24.599-.55.656zm.38 5.989c-2.3 0-4.17-1.863-4.17-4.16 0-2.295 1.87-4.159 4.17-4.159S10 3.54 10 5.835c0 2.296-1.87 4.159-4.17 4.159z" fill="#0044a9"></path></svg><svg width="16" height="22" viewBox="-5 -5 16 22" id="show-more" y="243"><path d="M.67 11.886A.372.372 0 0 1 .39 12c-.1 0-.2-.038-.27-.114a.375.375 0 0 1 0-.55l4.9-4.837-4.9-4.836a.375.375 0 0 1 0-.55.39.39 0 0 1 .55 0l5.19 5.112c.15.151.15.398 0 .549z"></path><path d="M.67 11.886A.372.372 0 0 1 .39 12c-.1 0-.2-.038-.27-.114a.375.375 0 0 1 0-.55l4.9-4.837-4.9-4.836a.375.375 0 0 1 0-.55.39.39 0 0 1 .55 0l5.19 5.112c.15.151.15.398 0 .549z" fill="#1f4ba5"></path></svg><svg width="105" height="91" viewBox="-5 -5 105 91" id="timer" y="265"><path d="M62 28c11.046 0 20 8.95 20 20 0 11.04-8.954 20-20 20s-20-8.96-20-20c0-11.05 8.954-20 20-20z" fill="#febe10"></path><path d="M62.427 80.72c-17.593 0-31.906-14.32-31.906-31.93 0-16.99 13.34-30.934 30.091-31.879V13.41h-4.437a4.434 4.434 0 0 1-4.438-4.44v-3.8A4.44 4.44 0 0 1 56.175.73h12.678a4.44 4.44 0 0 1 4.438 4.44v3.8c0 2.46-1.987 4.44-4.438 4.44h-4.437v3.511c16.67 1.032 29.916 14.937 29.916 31.869 0 17.61-14.312 31.93-31.905 31.93zm0-60.05c-15.495 0-28.102 12.62-28.102 28.12 0 15.51 12.607 28.12 28.102 28.12 15.496 0 28.101-12.61 28.101-28.12 0-15.5-12.605-28.12-28.101-28.12zm0 50.34c-12.245 0-22.207-9.96-22.207-22.22 0-12.25 9.962-22.22 22.207-22.22 12.244 0 22.207 9.97 22.207 22.22 0 12.26-9.963 22.22-22.207 22.22zm0-40.63c-10.147 0-18.403 8.26-18.403 18.41 0 10.16 8.256 18.42 18.403 18.42 10.147 0 18.403-8.26 18.403-18.42 0-10.15-8.256-18.41-18.403-18.41zm.444 15.5l14.898 2.42-14.585 3.91a3.241 3.241 0 0 1-3.97-2.29 3.256 3.256 0 0 1 2.296-3.98c.453-.12.925-.13 1.361-.06zm6.616-40.71c0-.35-.283-.64-.634-.64H56.175a.639.639 0 0 0-.634.64v3.8c0 .35.283.64.634.64h12.678c.351 0 .634-.29.634-.64z" fill="#0044a9"></path><path d="M11 17h28c1.104 0 2 .89 2 2 0 1.1-.896 2-2 2H11c-1.105 0-2-.9-2-2 0-1.11.895-2 2-2zM6 27h23c1.105 0 2 .89 2 2 0 1.1-.895 2-2 2H6c-1.105 0-2-.9-2-2 0-1.11.895-2 2-2zM2 37h23c1.104 0 2 .89 2 2 0 1.1-.896 2-2 2H2c-1.105 0-2-.9-2-2 0-1.11.895-2 2-2z" fill="#f55b6b"></path><path d="M62 28c11.046 0 20 8.95 20 20 0 11.04-8.954 20-20 20s-20-8.96-20-20c0-11.05 8.954-20 20-20z" fill="#febe10"></path><path d="M62.427 80.72c-17.593 0-31.906-14.32-31.906-31.93 0-16.99 13.34-30.934 30.091-31.879V13.41h-4.437a4.434 4.434 0 0 1-4.438-4.44v-3.8A4.44 4.44 0 0 1 56.175.73h12.678a4.44 4.44 0 0 1 4.438 4.44v3.8c0 2.46-1.987 4.44-4.438 4.44h-4.437v3.511c16.67 1.032 29.916 14.937 29.916 31.869 0 17.61-14.312 31.93-31.905 31.93zm0-60.05c-15.495 0-28.102 12.62-28.102 28.12 0 15.51 12.607 28.12 28.102 28.12 15.496 0 28.101-12.61 28.101-28.12 0-15.5-12.605-28.12-28.101-28.12zm0 50.34c-12.245 0-22.207-9.96-22.207-22.22 0-12.25 9.962-22.22 22.207-22.22 12.244 0 22.207 9.97 22.207 22.22 0 12.26-9.963 22.22-22.207 22.22zm0-40.63c-10.147 0-18.403 8.26-18.403 18.41 0 10.16 8.256 18.42 18.403 18.42 10.147 0 18.403-8.26 18.403-18.42 0-10.15-8.256-18.41-18.403-18.41zm.444 15.5l14.898 2.42-14.585 3.91a3.241 3.241 0 0 1-3.97-2.29 3.256 3.256 0 0 1 2.296-3.98c.453-.12.925-.13 1.361-.06zm6.616-40.71c0-.35-.283-.64-.634-.64H56.175a.639.639 0 0 0-.634.64v3.8c0 .35.283.64.634.64h12.678c.351 0 .634-.29.634-.64z" fill="#0044a9"></path><path d="M11 17h28c1.104 0 2 .89 2 2 0 1.1-.896 2-2 2H11c-1.105 0-2-.9-2-2 0-1.11.895-2 2-2zM6 27h23c1.105 0 2 .89 2 2 0 1.1-.895 2-2 2H6c-1.105 0-2-.9-2-2 0-1.11.895-2 2-2zM2 37h23c1.104 0 2 .89 2 2 0 1.1-.896 2-2 2H2c-1.105 0-2-.9-2-2 0-1.11.895-2 2-2z" fill="#f55b6b"></path></svg></svg>